<mxfile host="app.diagrams.net" modified="2024-04-28T17:35:37.299Z" agent="Mozilla/5.0 (Windows NT 10.0; Win64; x64) AppleWebKit/537.36 (KHTML, like Gecko) Chrome/121.0.0.0 Safari/537.36 OPR/107.0.0.0" etag="lgTCo-_ma4xSXloi4oV-" version="24.2.8" type="device">
  <diagram name="Page-1" id="WniV3JUBbijvew9D2Gq7">
    <mxGraphModel dx="1393" dy="758" grid="1" gridSize="10" guides="1" tooltips="1" connect="1" arrows="1" fold="1" page="1" pageScale="1" pageWidth="827" pageHeight="1169" math="0" shadow="0">
      <root>
        <mxCell id="0" />
        <mxCell id="1" parent="0" />
        <mxCell id="534LPmrPOwn1J3PbvF31-8" value="&lt;h3&gt;Controllers&lt;/h3&gt;" style="rounded=1;whiteSpace=wrap;html=1;fillColor=#d6d6d6;strokeColor=#36393d;" vertex="1" parent="1">
          <mxGeometry x="290" y="290" width="170" height="50" as="geometry" />
        </mxCell>
        <mxCell id="534LPmrPOwn1J3PbvF31-9" value="&lt;h3&gt;Services&lt;/h3&gt;" style="rounded=1;whiteSpace=wrap;html=1;fillColor=#d6d6d6;strokeColor=#36393d;" vertex="1" parent="1">
          <mxGeometry x="290" y="370" width="170" height="50" as="geometry" />
        </mxCell>
        <mxCell id="534LPmrPOwn1J3PbvF31-10" value="&lt;h3&gt;Data Storage&lt;/h3&gt;" style="rounded=1;whiteSpace=wrap;html=1;fillColor=#d6d6d6;strokeColor=#36393d;" vertex="1" parent="1">
          <mxGeometry x="290" y="450" width="170" height="50" as="geometry" />
        </mxCell>
      </root>
    </mxGraphModel>
  </diagram>
</mxfile>
